<svg xmlns="http://www.w3.org/2000/svg" viewBox="0 0 100 100">
  <defs>
    <linearGradient id="grad1" x1="0%" y1="0%" x2="0%" y2="100%">
      <stop offset="0%" style="stop-color:#667eea;stop-opacity:1" />
      <stop offset="100%" style="stop-color:#764ba2;stop-opacity:1" />
    </linearGradient>
  </defs>
  <!-- Diffuser base -->
  <rect x="30" y="60" width="40" height="20" rx="5" fill="url(#grad1)"/>
  <!-- Diffuser body -->
  <ellipse cx="50" cy="50" rx="20" ry="25" fill="url(#grad1)"/>
  <!-- Aroma waves -->
  <path d="M 30 30 Q 35 25, 40 30 Q 45 25, 50 30 Q 55 25, 60 30 Q 65 25, 70 30" 
        stroke="#10b981" stroke-width="2" fill="none" opacity="0.7"/>
  <path d="M 25 20 Q 30 15, 35 20 Q 40 15, 45 20 Q 50 15, 55 20 Q 60 15, 65 20 Q 70 15, 75 20" 
        stroke="#10b981" stroke-width="2" fill="none" opacity="0.5"/>
  <path d="M 20 10 Q 25 5, 30 10 Q 35 5, 40 10 Q 45 5, 50 10 Q 55 5, 60 10 Q 65 5, 70 10 Q 75 5, 80 10" 
        stroke="#10b981" stroke-width="2" fill="none" opacity="0.3"/>
</svg>

